<svg width="20" height="20" viewBox="0 0 20 20" fill="none" xmlns="http://www.w3.org/2000/svg">
<path d="M6 17.5C5.72386 17.5 5.5 17.7239 5.5 18C5.5 18.2761 5.72386 18.5 6 18.5H14C14.2761 18.5 14.5 18.2761 14.5 18C14.5 17.7239 14.2761 17.5 14 17.5H6Z" fill="white"/>
<path d="M9.5 15.0294H10.589V17.7881H9.5V15.0294Z" fill="white"/>
<g clip-path="url(#clip0_3049_6937)">
<path d="M1.5 15.9211H18.5V2.5H1.5V15.9211ZM5.92466 9.6787H6.99256L8.08871 8.20958C8.1415 8.1386 8.21557 8.10616 8.29062 8.12206C8.36453 8.13817 8.42821 8.20087 8.46167 8.29057L9.37459 10.7379L10.3614 6.77089C10.3929 6.64352 10.4819 6.55753 10.5822 6.55753C10.6824 6.55753 10.7714 6.64353 10.8029 6.77089L11.8484 10.9737L12.7462 9.77011C12.7899 9.71176 12.8491 9.67868 12.911 9.67868H14.0753C14.204 9.67868 14.3083 9.81845 14.3083 9.99088C14.3083 10.1633 14.2042 10.3031 14.0753 10.3031H13.0074L11.9113 11.7722C11.8671 11.8314 11.8075 11.8637 11.7466 11.8637C11.7289 11.8637 11.7108 11.8608 11.6931 11.8552C11.6145 11.8303 11.5512 11.7528 11.5258 11.6501L10.5822 7.85662L9.6386 11.6501C9.60887 11.7698 9.5283 11.8536 9.43441 11.8626C9.33759 11.8708 9.2515 11.8036 9.20942 11.6908L8.18947 8.95692L7.25363 10.2114C7.2101 10.27 7.15097 10.3031 7.08908 10.3031H5.9247C5.79604 10.3031 5.69176 10.1633 5.69176 9.99086C5.69176 9.81842 5.79604 9.67865 5.9247 9.67865L5.92466 9.6787Z" fill="white"/>
</g>
<defs>
<clipPath id="clip0_3049_6937">
<rect x="1.5" y="2.5" width="17" height="13.4211" rx="1" fill="white"/>
</clipPath>
</defs>
</svg>
