<svg width="20" height="20" viewBox="0 0 20 20" fill="none" xmlns="http://www.w3.org/2000/svg">
<path fill-rule="evenodd" clip-rule="evenodd" d="M11.9998 17.5004H7.00049C7.00049 18.3934 7.47696 19.2186 8.25026 19.6651C9.0237 20.1116 9.97659 20.1116 10.75 19.6651C11.5233 19.2186 11.9998 18.3934 11.9998 17.5004ZM8.20938 0.51514C8.5828 0.160614 9.08586 -0.0247932 9.60008 0.00266903L9.60023 0.00263164C10.6147 0.0588744 11.375 0.96921 11.375 1.9837V2.82935C12.4707 3.21672 13.4195 3.93408 14.091 4.88262C14.7623 5.83115 15.1235 6.96438 15.1245 8.12665V9.55351C15.1274 10.4485 15.4503 11.313 16.0348 11.9907L16.5827 12.6302C16.8541 12.9516 17.0018 13.3593 16.9994 13.7801V13.8591C16.9988 14.3279 16.8122 14.7772 16.4807 15.1083C16.1491 15.4396 15.6995 15.6256 15.2307 15.6256H3.83416C3.48919 15.6321 3.14963 15.5407 2.85452 15.3618C2.55955 15.183 2.3214 14.9242 2.16767 14.6153C2.01307 14.2855 1.96381 13.916 2.02644 13.5572C2.08893 13.1983 2.26052 12.8673 2.5177 12.6094L2.77809 12.349C3.48064 11.6462 3.87557 10.6932 3.87586 9.6993V8.12669C3.87687 6.96442 4.23809 5.83119 4.9094 4.88266C5.58085 3.93412 6.52968 3.21676 7.62541 2.82939V1.8775C7.62467 1.36239 7.8358 0.869826 8.20938 0.51514ZM13.4809 12.4063H5.52119V13.8151H13.4809V12.4063ZM7.20837 9.73469L9.07899 11.6053C9.19194 11.7157 9.34367 11.7776 9.50164 11.7776C9.65962 11.7776 9.81136 11.7158 9.9243 11.6053L11.7949 9.73469C11.9385 9.58452 11.9927 9.3699 11.9374 9.16955C11.8821 8.96925 11.7256 8.81272 11.5253 8.75747C11.3249 8.70218 11.1103 8.7563 10.9601 8.89991L9.50106 10.3556L8.0443 8.90237C7.89358 8.76361 7.68175 8.71291 7.48455 8.76843C7.28741 8.82389 7.13306 8.97759 7.07675 9.17452C7.02044 9.37144 7.07029 9.58349 7.20834 9.7348L7.20837 9.73469ZM9.07891 9.03315L7.20828 7.16253L7.20826 7.16249C7.08975 7.0534 7.02094 6.90065 7.01779 6.73967C7.01463 6.57864 7.07736 6.42333 7.19148 6.30969C7.3056 6.19605 7.46118 6.13392 7.6222 6.13777C7.78316 6.14162 7.93564 6.21107 8.04421 6.33005L9.50096 7.78448L10.96 6.32773C11.0698 6.21292 11.2213 6.14715 11.3801 6.14538C11.539 6.14362 11.6919 6.20598 11.8042 6.31828C11.9166 6.43063 11.9789 6.58355 11.9771 6.74238C11.9754 6.90127 11.9096 7.05268 11.7948 7.16253L9.92421 9.03315C9.81128 9.14359 9.65953 9.20546 9.50156 9.20546C9.34359 9.20546 9.19185 9.14358 9.07891 9.03315Z" fill="white"/>
</svg>
