<svg width="36" height="35" viewBox="0 0 36 35" fill="none" xmlns="http://www.w3.org/2000/svg">
<path d="M12.8028 28.9318C13.3986 28.9318 13.8816 28.4651 13.8816 27.8895C13.8816 27.3138 13.3986 26.8472 12.8028 26.8472C12.207 26.8472 11.724 27.3138 11.724 27.8895C11.724 28.4651 12.207 28.9318 12.8028 28.9318Z" stroke="black" stroke-width="1.5" stroke-linecap="round" stroke-linejoin="round"/>
<path d="M27.9063 28.9318C28.5021 28.9318 28.9851 28.4651 28.9851 27.8895C28.9851 27.3138 28.5021 26.8472 27.9063 26.8472C27.3105 26.8472 26.8275 27.3138 26.8275 27.8895C26.8275 28.4651 27.3105 28.9318 27.9063 28.9318Z" stroke="black" stroke-width="1.5" stroke-linecap="round" stroke-linejoin="round"/>
<path d="M4.1723 6.00073H8.48757L11.724 23.7202H28.9851" stroke="black" stroke-width="3" stroke-linecap="round" stroke-linejoin="round"/>
<path d="M11.724 18.1611H28.5428C28.6675 18.1612 28.7884 18.1195 28.885 18.0431C28.9815 17.9668 29.0476 17.8604 29.0721 17.7423L31.0139 8.36135C31.0296 8.28571 31.0277 8.20765 31.0084 8.1328C30.989 8.05796 30.9527 7.9882 30.9021 7.92855C30.8514 7.86891 30.7877 7.82087 30.7155 7.7879C30.6433 7.75493 30.5645 7.73786 30.4846 7.73792H9.56641" stroke="black" stroke-width="3" stroke-linecap="round" stroke-linejoin="round"/>
</svg>
