<svg width="45" height="33" viewBox="0 0 45 33" fill="none" xmlns="http://www.w3.org/2000/svg">
<path d="M30.9375 1.5H14.0625C12.3221 1.5 10.6528 2.19139 9.42209 3.42209C8.19139 4.65279 7.5 6.32207 7.5 8.0625V24.9375C7.5 26.6779 8.19139 28.3472 9.42209 29.5779C10.6528 30.8086 12.3221 31.5 14.0625 31.5H30.9375C32.6779 31.5 34.3472 30.8086 35.5779 29.5779C36.8086 28.3472 37.5 26.6779 37.5 24.9375V8.0625C37.5 6.32207 36.8086 4.65279 35.5779 3.42209C34.3472 2.19139 32.6779 1.5 30.9375 1.5ZM30 24.9375C30.0178 25.4286 29.8351 25.906 29.4938 26.2596C29.1525 26.6133 28.6821 26.8129 28.1907 26.8125H16.8095C16.3181 26.8129 15.8477 26.6133 15.5064 26.2596C15.1651 25.906 14.9824 25.4286 15.0002 24.9375V22.125H16.8752V24.9375H28.1252V22.125H30.0002L30 24.9375ZM26.5218 15.8341L27.8532 17.1655L23.1657 21.853C22.9897 22.0304 22.7501 22.1302 22.5 22.1302C22.2499 22.1302 22.0103 22.0304 21.8343 21.853L17.1468 17.1655L18.4782 15.8341L21.5625 18.9279V7.125H23.4375V18.9279L26.5218 15.8341Z" fill="#00FFFF"/>
</svg>
