<svg width="30" height="30" viewBox="0 0 30 30" fill="none" xmlns="http://www.w3.org/2000/svg">
<rect x="0.25" y="0.25" width="29.5" height="29.5" rx="4.75" fill="white"/>
<rect x="0.25" y="0.25" width="29.5" height="29.5" rx="4.75" stroke="#737373" stroke-width="0.5"/>
<path d="M23.6149 6.31718C23.4906 6.19268 23.3983 6.10045 23.3112 6.02291C21.7807 4.65903 19.471 4.65903 17.9407 6.02291C17.8535 6.10045 17.7614 6.19268 17.6369 6.31701L17.1243 6.82984L23.1456 12.8512L23.6583 12.3385C23.7828 12.2142 23.875 12.122 23.9527 12.0348C25.3164 10.5043 25.3164 8.19466 23.9527 6.66429C23.875 6.57712 23.7828 6.48489 23.6583 6.36039L23.6149 6.31718Z" fill="black"/>
<path d="M15.6973 8.25684L21.7186 14.2782L13.475 22.5218C12.9657 23.0316 12.5797 23.418 12.1013 23.6893C11.623 23.9606 11.0933 24.0933 10.3945 24.2688L9.0118 24.6165C8.35081 24.7827 7.74842 24.9344 7.26192 24.9827C6.74502 25.0339 6.082 24.9999 5.55883 24.4835C5.03566 23.967 4.99328 23.3043 5.03786 22.7869C5.07993 22.2999 5.22385 21.6955 5.38162 21.0325L5.71372 19.6361C5.88434 18.9179 6.01356 18.3735 6.28823 17.8819C6.5629 17.3902 6.95869 16.9947 7.48099 16.4731L15.6973 8.25684Z" fill="black"/>
<path d="M16.6529 22.4163C16.0957 22.4163 15.6438 22.8681 15.6438 23.4254C15.6438 23.9827 16.0957 24.4344 16.6529 24.4344H23.716C24.2733 24.4344 24.725 23.9827 24.725 23.4254C24.725 22.8681 24.2733 22.4163 23.716 22.4163H16.6529Z" fill="black"/>
</svg>
