<svg width="30" height="34" viewBox="0 0 30 34" fill="none" xmlns="http://www.w3.org/2000/svg">
<path d="M25.0702 6.50012V7.00012H25.5702L26.63 7.00012C26.6301 7.00012 26.6302 7.00012 26.6303 7.00012C27.325 7.00107 28.0018 7.30469 28.509 7.86268C29.0177 8.42234 29.3109 9.19053 29.3117 10.0006V13.4996C29.3109 14.3097 29.0177 15.0779 28.509 15.6376C28.0017 16.1957 27.3248 16.4993 26.63 16.5001H25.5702H25.0702V17.0001V29.833C25.0694 30.6431 24.7761 31.4113 24.2674 31.9709C23.7602 32.529 23.0832 32.8326 22.3884 32.8335H7.54413C6.84935 32.8326 6.17237 32.529 5.66513 31.9709C5.15655 31.4114 4.86328 30.6434 4.86235 29.8335C4.86235 29.8333 4.86235 29.8331 4.86235 29.833L4.86235 17.0001V16.5001H4.36235H3.30257C2.60778 16.4993 1.93081 16.1957 1.42356 15.6376C0.914925 15.078 0.621653 14.3099 0.620789 13.4999V10.0004C0.621653 9.19038 0.914925 8.42229 1.42356 7.86268C1.93072 7.30469 2.60754 7.00107 3.3022 7.00012C3.30232 7.00012 3.30244 7.00012 3.30257 7.00012L4.36235 7.00012H4.86235V6.50012V1.83349C4.86235 1.83348 4.86235 1.83347 4.86235 1.83346C4.86237 1.70873 4.89211 1.58842 4.94592 1.48491C4.99965 1.38156 5.07392 1.30133 5.15677 1.24771C5.23916 1.19439 5.32857 1.16809 5.41651 1.16691C5.50442 1.16573 5.59403 1.1896 5.67704 1.24036L5.67712 1.24041L14.7055 6.75886L14.9663 6.91825L15.227 6.75886L24.2554 1.24041L24.2555 1.24036C24.3385 1.1896 24.4281 1.16573 24.516 1.16691C24.604 1.16809 24.6934 1.19439 24.7758 1.24771C24.8586 1.30133 24.9329 1.38156 24.9866 1.48491C25.0404 1.58842 25.0702 1.70873 25.0702 1.83346C25.0702 1.83347 25.0702 1.83348 25.0702 1.83349V6.50012ZM23.4494 7.00012H23.9494V6.50012V3.81679V2.92525L23.1887 3.39015L18.7979 6.07349L17.2816 7.00012H19.0586H23.4494ZM6.74387 3.39015L5.98314 2.92525V3.81679V6.50012V7.00012H6.48314H10.8739H12.6509L11.1346 6.07349L6.74387 3.39015ZM5.98314 29.8335L5.98314 29.8341C5.98364 30.2612 6.13765 30.6791 6.42412 30.9943C6.71201 31.311 7.1131 31.4995 7.54281 31.5001H7.54353H13.9059H14.4059V31.0001V17.0001V16.5001H13.9059H6.48314H5.98314V17.0001L5.98314 29.8335ZM23.9494 29.8341V29.8335V17.0001V16.5001H23.4494H16.0267H15.5267V17.0001V31.0001V31.5001H16.0267L22.389 31.5001L22.3897 31.5001C22.8194 31.4995 23.2205 31.311 23.5084 30.9943C23.7949 30.6791 23.9489 30.2612 23.9494 29.8341ZM28.191 13.5007V13.5001V10.0001V9.99954C28.1905 9.57242 28.0364 9.15448 27.75 8.83931C27.4621 8.52256 27.061 8.33407 26.6313 8.33346H26.6306L3.30196 8.33346L3.30125 8.33346C2.87154 8.33407 2.47045 8.52256 2.18255 8.83931C1.89609 9.15448 1.74208 9.57242 1.74157 9.99954V10.0001L1.74157 13.5001L1.74157 13.5007C1.74208 13.9278 1.89609 14.3458 2.18255 14.6609C2.47045 14.9777 2.87154 15.1662 3.30125 15.1668H3.30196L26.6306 15.1668L26.6313 15.1668C27.061 15.1662 27.4621 14.9777 27.75 14.6609C28.0364 14.3458 28.1905 13.9278 28.191 13.5007Z" fill="#333333" stroke="black"/>
</svg>
