<svg width="20" height="20" viewBox="0 0 20 20" fill="none" xmlns="http://www.w3.org/2000/svg">
<path d="M18.2492 4.3486C16.9839 4.97803 15.632 5.41521 14.2378 5.64619C14.4843 6.97607 14.614 8.32493 14.626 9.67747H19.9999C19.9417 7.77002 19.3338 5.91964 18.2491 4.3486H18.2492Z" fill="white"/>
<path d="M2.13306 16.1758C2.15747 16.2067 2.18093 16.2387 2.20573 16.2695C2.26206 16.3392 2.31974 16.4075 2.3778 16.4755C2.44605 16.5555 2.51507 16.6348 2.58562 16.7126C2.64522 16.7783 2.70597 16.8426 2.7673 16.9063C2.84036 16.9824 2.91438 17.0575 2.98935 17.1312C3.05183 17.1924 3.11528 17.2527 3.1793 17.3121C3.25678 17.3839 3.33522 17.4545 3.41462 17.5239C3.48036 17.5811 3.54689 17.6375 3.61398 17.6932C3.69492 17.7602 3.77701 17.8257 3.86026 17.8898C3.92908 17.9432 3.99849 17.996 4.06866 18.0477C4.15345 18.1099 4.23919 18.1702 4.3259 18.2295C4.39742 18.2786 4.46913 18.3274 4.5418 18.3747C4.62985 18.4319 4.71925 18.487 4.80903 18.5413C4.88324 18.5862 4.95726 18.6312 5.03243 18.6742C5.12375 18.7264 5.21642 18.776 5.30908 18.8251C5.38541 18.8656 5.46154 18.9063 5.53883 18.9449C5.63303 18.9918 5.72858 19.0357 5.82413 19.0797C5.90257 19.1158 5.98082 19.1525 6.06022 19.1865C6.15731 19.2281 6.25574 19.2665 6.35417 19.3051C6.43396 19.3364 6.51355 19.3687 6.59411 19.3979C6.69427 19.4342 6.79578 19.467 6.89709 19.5002C6.97822 19.5267 7.05878 19.5546 7.14049 19.5789C7.24354 19.6099 7.34792 19.6367 7.45193 19.6642C7.53364 19.6859 7.61477 19.7089 7.69706 19.7285C7.80453 19.7541 7.91334 19.7752 8.02177 19.7973C8.07888 19.8088 8.13559 19.8215 8.19308 19.832C7.19565 18.8854 6.38549 17.1679 5.89278 14.9853L5.89297 14.9851C4.58913 15.1999 3.32272 15.6008 2.13306 16.1758Z" fill="white"/>
<path d="M10.0001 20C11.4591 20 12.7643 17.9077 13.4579 14.8791C11.1653 14.5382 8.8348 14.5382 6.54199 14.8791C7.23565 17.9074 8.54083 20 9.99986 20H10.0001Z" fill="white"/>
<path d="M1.75077 15.6513C3.01599 15.0218 4.36792 14.5846 5.76213 14.3537C5.51567 13.0238 5.3859 11.6749 5.37398 10.3224H0C0.0582529 12.2298 0.666148 14.0802 1.75084 15.6513H1.75077Z" fill="white"/>
<path d="M6.4585e-05 9.67747H5.37404C5.38596 8.32493 5.51573 6.97607 5.7622 5.64619C4.36799 5.41539 3.01605 4.97798 1.75084 4.3486C0.666149 5.91964 0.0582234 7.77002 0 9.67747H6.4585e-05Z" fill="white"/>
<path d="M12.3028 19.7282C12.3849 19.7086 12.4661 19.6855 12.5476 19.6638C12.6518 19.6362 12.7562 19.6093 12.8594 19.5786C12.9411 19.554 13.0217 19.5264 13.1028 19.4999C13.2041 19.4666 13.3056 19.434 13.4058 19.3975C13.4865 19.3683 13.5659 19.3361 13.6457 19.3048C13.7442 19.2662 13.8426 19.2278 13.9397 19.1861C14.0191 19.1521 14.0973 19.1155 14.1758 19.0794C14.2713 19.0354 14.3669 18.9914 14.4611 18.9446C14.5384 18.906 14.6145 18.8653 14.6908 18.8247C14.7837 18.7756 14.8763 18.7259 14.9675 18.6738C15.0426 18.6308 15.1168 18.5859 15.1909 18.541C15.2806 18.4866 15.37 18.4315 15.4581 18.3743C15.5308 18.3271 15.6025 18.2783 15.674 18.2291C15.7605 18.1696 15.8464 18.1093 15.9312 18.0471C16.0012 17.9956 16.0704 17.9428 16.1393 17.8897C16.2225 17.8251 16.3048 17.7595 16.3861 17.6925C16.453 17.6372 16.5193 17.5807 16.5849 17.5235C16.6645 17.4542 16.7429 17.3835 16.8204 17.3115C16.8844 17.252 16.9479 17.1917 17.0104 17.1306C17.0855 17.0571 17.1595 16.982 17.2324 16.9058C17.2937 16.8419 17.3545 16.7775 17.4141 16.7121C17.4846 16.6345 17.5537 16.555 17.6219 16.4749C17.68 16.407 17.7377 16.3386 17.794 16.2689C17.8188 16.2382 17.8422 16.2063 17.8667 16.1752L17.8668 16.1756C16.6772 15.6007 15.411 15.1998 14.1069 14.9849C13.6144 17.1675 12.804 18.8848 11.8066 19.8317C11.8639 19.8211 11.9206 19.8084 11.9776 19.7969C12.0864 19.775 12.1952 19.7539 12.3028 19.7282Z" fill="white"/>
<path d="M19.9999 10.3224H14.626C14.614 11.6749 14.4843 13.0238 14.2378 14.3537C15.632 14.5845 16.9839 15.0219 18.2492 15.6513C19.3338 14.0802 19.9418 12.2298 20 10.3224H19.9999Z" fill="white"/>
<path d="M13.5917 5.75298C12.4033 5.93385 11.2024 6.02352 10.0001 6.0214C8.79769 6.02352 7.5969 5.93385 6.40837 5.75298C6.16402 7.04732 6.03405 8.36029 6.02002 9.6773H13.9798C13.9658 8.36029 13.8358 7.04732 13.5915 5.75298H13.5917Z" fill="white"/>
<path d="M6.40806 14.2469C8.78912 13.889 11.2103 13.889 13.5912 14.2469C13.8356 12.9528 13.9656 11.6396 13.9796 10.3226H6.01978C6.03381 11.6396 6.16377 12.9528 6.40812 14.2469H6.40806Z" fill="white"/>
<path d="M10.0001 0C8.54108 0 7.2359 2.09232 6.54224 5.12095C7.68672 5.29299 8.84273 5.37843 10.0001 5.37651C11.1575 5.37843 12.3135 5.29299 13.458 5.12095C12.7643 2.09257 11.4591 0 10.0001 0Z" fill="white"/>
<path d="M17.6222 3.52479C17.554 3.44472 17.485 3.36542 17.4144 3.28766C17.3548 3.22199 17.294 3.15767 17.2327 3.09392C17.1597 3.01788 17.0856 2.94281 17.0107 2.86907C16.9482 2.80782 16.8847 2.74753 16.8207 2.6882C16.7432 2.6162 16.6648 2.54573 16.5852 2.47622C16.5196 2.419 16.4533 2.36274 16.3864 2.30725C16.3051 2.24004 16.2228 2.17438 16.1396 2.11005C16.0707 2.05687 16.0017 2.00407 15.9315 1.95261C15.8468 1.8904 15.7608 1.8301 15.6743 1.77058C15.6028 1.72143 15.5311 1.67266 15.4584 1.62542C15.3704 1.5682 15.281 1.51309 15.1912 1.45876C15.117 1.41383 15.0429 1.3689 14.9678 1.32589C14.8765 1.27366 14.7838 1.22412 14.6911 1.17497C14.6148 1.13445 14.5387 1.09375 14.4614 1.05515C14.3672 1.0083 14.2716 0.96433 14.1761 0.920361C14.0976 0.884262 14.0194 0.847587 13.94 0.813602C13.8429 0.771935 13.7445 0.733533 13.646 0.694937C13.5662 0.663639 13.4867 0.63138 13.4061 0.602197C13.3059 0.565907 13.2044 0.533075 13.1031 0.499857C13.022 0.473359 12.9414 0.445516 12.8597 0.42113C12.7565 0.390216 12.6521 0.363334 12.5479 0.335876C12.4664 0.314371 12.3854 0.291138 12.3031 0.271552C12.1955 0.246015 12.0867 0.224894 11.978 0.202814C11.9211 0.191293 11.8644 0.178621 11.8071 0.16806C12.8046 1.11468 13.6147 2.8322 14.1074 5.01482L14.107 5.01501C15.4111 4.80015 16.6773 4.39925 17.867 3.82434C17.8425 3.79342 17.8191 3.76136 17.7943 3.73064C17.7379 3.66094 17.6801 3.59276 17.6222 3.52479Z" fill="white"/>
<path d="M7.69725 0.271526C7.61497 0.291112 7.53384 0.314345 7.45213 0.33585C7.34793 0.363308 7.24372 0.390191 7.14068 0.421104C7.05897 0.445682 6.97842 0.473331 6.89729 0.499831C6.79597 0.533048 6.69446 0.565688 6.5943 0.602171C6.51355 0.631357 6.43415 0.663615 6.35437 0.694911C6.25593 0.733506 6.1575 0.771907 6.06041 0.813576C5.98101 0.847562 5.90276 0.884236 5.82432 0.920335C5.72877 0.964306 5.63322 1.00828 5.53902 1.05513C5.46173 1.09372 5.3856 1.13443 5.30927 1.17494C5.21642 1.2241 5.12375 1.27383 5.03262 1.32586C4.95745 1.36887 4.88324 1.4138 4.80922 1.45873C4.71944 1.51307 4.63004 1.56818 4.54199 1.6254C4.46932 1.67263 4.39761 1.7214 4.32609 1.77056C4.23958 1.83008 4.15364 1.89037 4.06885 1.95239C3.99868 2.00404 3.92928 2.05684 3.86045 2.11022C3.7774 2.17454 3.6955 2.24002 3.61418 2.30684C3.54708 2.36233 3.48056 2.41878 3.41481 2.47619C3.33522 2.54551 3.25678 2.61598 3.17949 2.68798C3.11547 2.7475 3.05203 2.80779 2.98955 2.86885C2.91438 2.9424 2.84036 3.01747 2.7675 3.0937C2.70617 3.15764 2.64541 3.22196 2.58582 3.28744C2.51526 3.36501 2.44624 3.4445 2.37799 3.52457C2.31993 3.59254 2.26225 3.6609 2.20592 3.7306C2.18112 3.76132 2.15767 3.79319 2.13325 3.8243H2.13306C3.32272 4.39916 4.58887 4.80012 5.89297 5.01497C6.38553 2.8324 7.19588 1.11503 8.19326 0.168213C8.13597 0.178773 8.07906 0.191446 8.02196 0.202967C7.91353 0.225048 7.80472 0.24599 7.69725 0.271526Z" fill="white"/>
</svg>
