<svg width="54" height="50" viewBox="0 0 54 18" fill="none" xmlns="http://www.w3.org/2000/svg">
    <path
        d="M15.1 13.36C15.3 13.28 15.4667 13.24 15.6 13.24C15.8133 13.24 15.9733 13.32 16.08 13.48C16.1867 13.64 16.24 13.8467 16.24 14.1C16.24 14.5 16.14 14.84 15.94 15.12C15.7533 15.4 15.4267 15.6533 14.96 15.88C14.1733 16.2533 13.1533 16.5533 11.9 16.78C10.6467 16.9933 9.41333 17.1 8.2 17.1C6.52 17.1 5.11333 16.9133 3.98 16.54C2.84667 16.1533 2 15.6267 1.44 14.96C0.893333 14.2933 0.62 13.54 0.62 12.7C0.62 11.5533 0.986667 10.58 1.72 9.78C2.46667 8.96667 3.56 8.38 5 8.02C4.21333 7.79333 3.60667 7.39333 3.18 6.82C2.76667 6.24667 2.56 5.60667 2.56 4.9C2.56 3.94 2.86 3.09333 3.46 2.36C4.07333 1.61333 4.89333 1.04 5.92 0.64C6.94667 0.239999 8.07333 0.039999 9.3 0.039999C10.9533 0.039999 12.1933 0.399999 13.02 1.12C13.8467 1.82667 14.26 2.74667 14.26 3.88C14.26 4.66667 14.1133 5.30667 13.82 5.8C13.54 6.28 13.1333 6.52 12.6 6.52C12.2267 6.52 11.9333 6.44 11.72 6.28C11.5067 6.10667 11.4 5.85333 11.4 5.52C11.4 5.29333 11.4333 5.04667 11.5 4.78C11.5667 4.34 11.6 4.04 11.6 3.88C11.6 3.4 11.42 3.01333 11.06 2.72C10.7 2.41333 10.1 2.26 9.26 2.26C8.12667 2.26 7.22 2.5 6.54 2.98C5.86 3.46 5.52 4.10667 5.52 4.92C5.52 5.54667 5.77333 6.06667 6.28 6.48C6.8 6.88 7.64 7.1 8.8 7.14C9.09333 7.15333 9.3 7.22 9.42 7.34C9.54 7.46 9.6 7.66 9.6 7.94C9.6 8.82 9.2 9.26667 8.4 9.28C7.29333 9.30667 6.37333 9.46 5.64 9.74C4.92 10.02 4.39333 10.38 4.06 10.82C3.74 11.2467 3.58 11.7067 3.58 12.2C3.58 13.0267 3.96667 13.6533 4.74 14.08C5.51333 14.4933 6.74 14.7 8.42 14.7C9.52667 14.7 10.6933 14.5733 11.92 14.32C13.16 14.0533 14.22 13.7333 15.1 13.36ZM16.907 12.08C16.587 12.1067 16.327 12.0133 16.127 11.8C15.9404 11.5867 15.847 11.2867 15.847 10.9C15.847 10.54 15.9337 10.2733 16.107 10.1C16.2937 9.92667 16.5604 9.82667 16.907 9.8L21.007 9.4C21.3404 9.37333 21.5937 9.46 21.767 9.66C21.9537 9.84667 22.047 10.1267 22.047 10.5C22.047 11.22 21.7004 11.6133 21.007 11.68L16.907 12.08ZM27.5534 17.1C26.2468 17.1 25.2268 16.7333 24.4934 16C23.7734 15.2533 23.4134 14.2733 23.4134 13.06C23.4134 11.98 23.6268 11.0333 24.0534 10.22C24.4801 9.40667 25.0334 8.78 25.7134 8.34C26.3934 7.9 27.1068 7.68 27.8534 7.68C28.5868 7.68 29.1534 7.9 29.5534 8.34C29.9668 8.76667 30.1734 9.32 30.1734 10C30.1734 10.56 30.0468 11.0333 29.7934 11.42C29.5534 11.8067 29.2334 12 28.8334 12C28.5801 12 28.3734 11.94 28.2134 11.82C28.0668 11.7 27.9934 11.5333 27.9934 11.32C27.9934 11.2267 28.0068 11.12 28.0334 11C28.0601 10.88 28.0801 10.7933 28.0934 10.74C28.1601 10.54 28.1934 10.3533 28.1934 10.18C28.1934 10.0067 28.1468 9.87333 28.0534 9.78C27.9734 9.68667 27.8534 9.64 27.6934 9.64C27.3868 9.64 27.1001 9.78 26.8334 10.06C26.5668 10.3267 26.3534 10.6933 26.1934 11.16C26.0334 11.6267 25.9534 12.14 25.9534 12.7C25.9534 14.2467 26.6268 15.02 27.9734 15.02C28.5201 15.02 29.1068 14.84 29.7334 14.48C30.3734 14.1067 31.0001 13.5533 31.6134 12.82C31.7734 12.6333 31.9534 12.54 32.1534 12.54C32.3268 12.54 32.4601 12.62 32.5534 12.78C32.6601 12.94 32.7134 13.16 32.7134 13.44C32.7134 13.9467 32.5868 14.36 32.3334 14.68C31.7068 15.4533 30.9534 16.0533 30.0734 16.48C29.2068 16.8933 28.3668 17.1 27.5534 17.1ZM41.2967 10.86C41.4701 10.86 41.6034 10.9467 41.6967 11.12C41.7901 11.2933 41.8367 11.5133 41.8367 11.78C41.8367 12.42 41.6434 12.8 41.2567 12.92C40.4567 13.2 39.5767 13.36 38.6167 13.4C38.3634 14.52 37.8634 15.42 37.1167 16.1C36.3701 16.7667 35.5234 17.1 34.5767 17.1C33.7767 17.1 33.0901 16.9067 32.5167 16.52C31.9567 16.1333 31.5301 15.62 31.2367 14.98C30.9434 14.34 30.7967 13.6467 30.7967 12.9C30.7967 11.8867 30.9901 10.9867 31.3767 10.2C31.7634 9.4 32.2967 8.78 32.9767 8.34C33.6567 7.88667 34.4101 7.66 35.2367 7.66C36.2501 7.66 37.0634 8.01333 37.6767 8.72C38.3034 9.41333 38.6701 10.2733 38.7767 11.3C39.4034 11.26 40.1501 11.1267 41.0167 10.9C41.1234 10.8733 41.2167 10.86 41.2967 10.86ZM34.7367 14.98C35.1634 14.98 35.5301 14.8067 35.8367 14.46C36.1567 14.1133 36.3701 13.6133 36.4767 12.96C36.0634 12.68 35.7434 12.3133 35.5167 11.86C35.3034 11.4067 35.1967 10.9267 35.1967 10.42C35.1967 10.2067 35.2167 9.99333 35.2567 9.78H35.1567C34.6234 9.78 34.1767 10.04 33.8167 10.56C33.4701 11.0667 33.2967 11.7867 33.2967 12.72C33.2967 13.4533 33.4367 14.0133 33.7167 14.4C34.0101 14.7867 34.3501 14.98 34.7367 14.98ZM41.5402 17.1C41.0335 17.1 40.6735 16.8333 40.4602 16.3C40.2602 15.7667 40.1602 14.9133 40.1602 13.74C40.1602 12.0067 40.4068 10.36 40.9002 8.8C41.0202 8.41333 41.2135 8.13333 41.4802 7.96C41.7602 7.77333 42.1468 7.68 42.6402 7.68C42.9068 7.68 43.0935 7.71333 43.2002 7.78C43.3068 7.84667 43.3602 7.97333 43.3602 8.16C43.3602 8.37333 43.2602 8.85333 43.0602 9.6C42.9268 10.1333 42.8202 10.6 42.7402 11C42.6602 11.3867 42.5935 11.8733 42.5402 12.46C42.9002 11.42 43.3268 10.54 43.8202 9.82C44.3268 9.1 44.8402 8.56667 45.3602 8.22C45.8935 7.86 46.3935 7.68 46.8602 7.68C47.3268 7.68 47.6535 7.78667 47.8402 8C48.0402 8.21333 48.1402 8.54 48.1402 8.98C48.1402 9.40667 48.0135 10.18 47.7602 11.3C47.6535 11.78 47.5802 12.14 47.5402 12.38C47.9802 11.26 48.4668 10.3467 49.0002 9.64C49.5468 8.93333 50.0802 8.43333 50.6002 8.14C51.1202 7.83333 51.6002 7.68 52.0402 7.68C52.4668 7.68 52.7868 7.79333 53.0002 8.02C53.2268 8.23333 53.3402 8.55333 53.3402 8.98C53.3402 9.32667 53.2668 9.98 53.1202 10.94C52.9868 11.7533 52.8802 12.5267 52.8002 13.26C52.7202 13.98 52.6802 14.7867 52.6802 15.68C52.6802 16.1867 52.5735 16.5533 52.3602 16.78C52.1602 16.9933 51.8268 17.1 51.3602 17.1C50.9202 17.1 50.6002 16.9867 50.4002 16.76C50.2002 16.5333 50.1002 16.1933 50.1002 15.74C50.1002 15.2067 50.1935 14.3267 50.3802 13.1C50.5402 12.0333 50.6202 11.3533 50.6202 11.06C50.6202 10.8467 50.5468 10.74 50.4002 10.74C50.2268 10.74 49.9802 10.9667 49.6602 11.42C49.3402 11.86 49.0202 12.4467 48.7002 13.18C48.3802 13.9133 48.1202 14.6867 47.9202 15.5C47.7735 16.14 47.6002 16.5667 47.4002 16.78C47.2135 16.9933 46.9068 17.1 46.4802 17.1C46.0402 17.1 45.7068 16.8933 45.4802 16.48C45.2668 16.0533 45.1602 15.54 45.1602 14.94C45.1602 14.4333 45.2268 13.7 45.3602 12.74C45.4668 11.8867 45.5202 11.3267 45.5202 11.06C45.5202 10.8467 45.4468 10.74 45.3002 10.74C45.1002 10.74 44.8468 10.98 44.5402 11.46C44.2335 11.94 43.9335 12.5533 43.6402 13.3C43.3602 14.0467 43.1335 14.78 42.9602 15.5C42.8135 16.1267 42.6402 16.5533 42.4402 16.78C42.2535 16.9933 41.9535 17.1 41.5402 17.1Z"
        fill="white" />
    <path
        d="M15.1 13.36C15.3 13.28 15.4667 13.24 15.6 13.24C15.8133 13.24 15.9733 13.32 16.08 13.48C16.1867 13.64 16.24 13.8467 16.24 14.1C16.24 14.5 16.14 14.84 15.94 15.12C15.7533 15.4 15.4267 15.6533 14.96 15.88C14.1733 16.2533 13.1533 16.5533 11.9 16.78C10.6467 16.9933 9.41333 17.1 8.2 17.1C6.52 17.1 5.11333 16.9133 3.98 16.54C2.84667 16.1533 2 15.6267 1.44 14.96C0.893333 14.2933 0.62 13.54 0.62 12.7C0.62 11.5533 0.986667 10.58 1.72 9.78C2.46667 8.96667 3.56 8.38 5 8.02C4.21333 7.79333 3.60667 7.39333 3.18 6.82C2.76667 6.24667 2.56 5.60667 2.56 4.9C2.56 3.94 2.86 3.09333 3.46 2.36C4.07333 1.61333 4.89333 1.04 5.92 0.64C6.94667 0.239999 8.07333 0.039999 9.3 0.039999C10.9533 0.039999 12.1933 0.399999 13.02 1.12C13.8467 1.82667 14.26 2.74667 14.26 3.88C14.26 4.66667 14.1133 5.30667 13.82 5.8C13.54 6.28 13.1333 6.52 12.6 6.52C12.2267 6.52 11.9333 6.44 11.72 6.28C11.5067 6.10667 11.4 5.85333 11.4 5.52C11.4 5.29333 11.4333 5.04667 11.5 4.78C11.5667 4.34 11.6 4.04 11.6 3.88C11.6 3.4 11.42 3.01333 11.06 2.72C10.7 2.41333 10.1 2.26 9.26 2.26C8.12667 2.26 7.22 2.5 6.54 2.98C5.86 3.46 5.52 4.10667 5.52 4.92C5.52 5.54667 5.77333 6.06667 6.28 6.48C6.8 6.88 7.64 7.1 8.8 7.14C9.09333 7.15333 9.3 7.22 9.42 7.34C9.54 7.46 9.6 7.66 9.6 7.94C9.6 8.82 9.2 9.26667 8.4 9.28C7.29333 9.30667 6.37333 9.46 5.64 9.74C4.92 10.02 4.39333 10.38 4.06 10.82C3.74 11.2467 3.58 11.7067 3.58 12.2C3.58 13.0267 3.96667 13.6533 4.74 14.08C5.51333 14.4933 6.74 14.7 8.42 14.7C9.52667 14.7 10.6933 14.5733 11.92 14.32C13.16 14.0533 14.22 13.7333 15.1 13.36ZM16.907 12.08C16.587 12.1067 16.327 12.0133 16.127 11.8C15.9404 11.5867 15.847 11.2867 15.847 10.9C15.847 10.54 15.9337 10.2733 16.107 10.1C16.2937 9.92667 16.5604 9.82667 16.907 9.8L21.007 9.4C21.3404 9.37333 21.5937 9.46 21.767 9.66C21.9537 9.84667 22.047 10.1267 22.047 10.5C22.047 11.22 21.7004 11.6133 21.007 11.68L16.907 12.08ZM27.5534 17.1C26.2468 17.1 25.2268 16.7333 24.4934 16C23.7734 15.2533 23.4134 14.2733 23.4134 13.06C23.4134 11.98 23.6268 11.0333 24.0534 10.22C24.4801 9.40667 25.0334 8.78 25.7134 8.34C26.3934 7.9 27.1068 7.68 27.8534 7.68C28.5868 7.68 29.1534 7.9 29.5534 8.34C29.9668 8.76667 30.1734 9.32 30.1734 10C30.1734 10.56 30.0468 11.0333 29.7934 11.42C29.5534 11.8067 29.2334 12 28.8334 12C28.5801 12 28.3734 11.94 28.2134 11.82C28.0668 11.7 27.9934 11.5333 27.9934 11.32C27.9934 11.2267 28.0068 11.12 28.0334 11C28.0601 10.88 28.0801 10.7933 28.0934 10.74C28.1601 10.54 28.1934 10.3533 28.1934 10.18C28.1934 10.0067 28.1468 9.87333 28.0534 9.78C27.9734 9.68667 27.8534 9.64 27.6934 9.64C27.3868 9.64 27.1001 9.78 26.8334 10.06C26.5668 10.3267 26.3534 10.6933 26.1934 11.16C26.0334 11.6267 25.9534 12.14 25.9534 12.7C25.9534 14.2467 26.6268 15.02 27.9734 15.02C28.5201 15.02 29.1068 14.84 29.7334 14.48C30.3734 14.1067 31.0001 13.5533 31.6134 12.82C31.7734 12.6333 31.9534 12.54 32.1534 12.54C32.3268 12.54 32.4601 12.62 32.5534 12.78C32.6601 12.94 32.7134 13.16 32.7134 13.44C32.7134 13.9467 32.5868 14.36 32.3334 14.68C31.7068 15.4533 30.9534 16.0533 30.0734 16.48C29.2068 16.8933 28.3668 17.1 27.5534 17.1ZM41.2967 10.86C41.4701 10.86 41.6034 10.9467 41.6967 11.12C41.7901 11.2933 41.8367 11.5133 41.8367 11.78C41.8367 12.42 41.6434 12.8 41.2567 12.92C40.4567 13.2 39.5767 13.36 38.6167 13.4C38.3634 14.52 37.8634 15.42 37.1167 16.1C36.3701 16.7667 35.5234 17.1 34.5767 17.1C33.7767 17.1 33.0901 16.9067 32.5167 16.52C31.9567 16.1333 31.5301 15.62 31.2367 14.98C30.9434 14.34 30.7967 13.6467 30.7967 12.9C30.7967 11.8867 30.9901 10.9867 31.3767 10.2C31.7634 9.4 32.2967 8.78 32.9767 8.34C33.6567 7.88667 34.4101 7.66 35.2367 7.66C36.2501 7.66 37.0634 8.01333 37.6767 8.72C38.3034 9.41333 38.6701 10.2733 38.7767 11.3C39.4034 11.26 40.1501 11.1267 41.0167 10.9C41.1234 10.8733 41.2167 10.86 41.2967 10.86ZM34.7367 14.98C35.1634 14.98 35.5301 14.8067 35.8367 14.46C36.1567 14.1133 36.3701 13.6133 36.4767 12.96C36.0634 12.68 35.7434 12.3133 35.5167 11.86C35.3034 11.4067 35.1967 10.9267 35.1967 10.42C35.1967 10.2067 35.2167 9.99333 35.2567 9.78H35.1567C34.6234 9.78 34.1767 10.04 33.8167 10.56C33.4701 11.0667 33.2967 11.7867 33.2967 12.72C33.2967 13.4533 33.4367 14.0133 33.7167 14.4C34.0101 14.7867 34.3501 14.98 34.7367 14.98ZM41.5402 17.1C41.0335 17.1 40.6735 16.8333 40.4602 16.3C40.2602 15.7667 40.1602 14.9133 40.1602 13.74C40.1602 12.0067 40.4068 10.36 40.9002 8.8C41.0202 8.41333 41.2135 8.13333 41.4802 7.96C41.7602 7.77333 42.1468 7.68 42.6402 7.68C42.9068 7.68 43.0935 7.71333 43.2002 7.78C43.3068 7.84667 43.3602 7.97333 43.3602 8.16C43.3602 8.37333 43.2602 8.85333 43.0602 9.6C42.9268 10.1333 42.8202 10.6 42.7402 11C42.6602 11.3867 42.5935 11.8733 42.5402 12.46C42.9002 11.42 43.3268 10.54 43.8202 9.82C44.3268 9.1 44.8402 8.56667 45.3602 8.22C45.8935 7.86 46.3935 7.68 46.8602 7.68C47.3268 7.68 47.6535 7.78667 47.8402 8C48.0402 8.21333 48.1402 8.54 48.1402 8.98C48.1402 9.40667 48.0135 10.18 47.7602 11.3C47.6535 11.78 47.5802 12.14 47.5402 12.38C47.9802 11.26 48.4668 10.3467 49.0002 9.64C49.5468 8.93333 50.0802 8.43333 50.6002 8.14C51.1202 7.83333 51.6002 7.68 52.0402 7.68C52.4668 7.68 52.7868 7.79333 53.0002 8.02C53.2268 8.23333 53.3402 8.55333 53.3402 8.98C53.3402 9.32667 53.2668 9.98 53.1202 10.94C52.9868 11.7533 52.8802 12.5267 52.8002 13.26C52.7202 13.98 52.6802 14.7867 52.6802 15.68C52.6802 16.1867 52.5735 16.5533 52.3602 16.78C52.1602 16.9933 51.8268 17.1 51.3602 17.1C50.9202 17.1 50.6002 16.9867 50.4002 16.76C50.2002 16.5333 50.1002 16.1933 50.1002 15.74C50.1002 15.2067 50.1935 14.3267 50.3802 13.1C50.5402 12.0333 50.6202 11.3533 50.6202 11.06C50.6202 10.8467 50.5468 10.74 50.4002 10.74C50.2268 10.74 49.9802 10.9667 49.6602 11.42C49.3402 11.86 49.0202 12.4467 48.7002 13.18C48.3802 13.9133 48.1202 14.6867 47.9202 15.5C47.7735 16.14 47.6002 16.5667 47.4002 16.78C47.2135 16.9933 46.9068 17.1 46.4802 17.1C46.0402 17.1 45.7068 16.8933 45.4802 16.48C45.2668 16.0533 45.1602 15.54 45.1602 14.94C45.1602 14.4333 45.2268 13.7 45.3602 12.74C45.4668 11.8867 45.5202 11.3267 45.5202 11.06C45.5202 10.8467 45.4468 10.74 45.3002 10.74C45.1002 10.74 44.8468 10.98 44.5402 11.46C44.2335 11.94 43.9335 12.5533 43.6402 13.3C43.3602 14.0467 43.1335 14.78 42.9602 15.5C42.8135 16.1267 42.6402 16.5533 42.4402 16.78C42.2535 16.9933 41.9535 17.1 41.5402 17.1Z"
        fill="black" fill-opacity="0.7" />
</svg>