<svg width="27" height="30" viewBox="0 0 27 30" fill="none" xmlns="http://www.w3.org/2000/svg">
<path d="M11.258 26.4445V25.9445H10.758H2.27485C2.04872 25.9445 1.82098 25.8461 1.64511 25.6525C1.46778 25.4575 1.36099 25.1834 1.36099 24.8889C1.36099 24.5944 1.46778 24.3204 1.64511 24.1253C1.82098 23.9317 2.04872 23.8333 2.27485 23.8333H2.77485V23.3333V12.4445C2.77485 9.26199 3.92435 6.21836 5.95772 3.98119C7.98965 1.74562 10.7347 0.5 13.5857 0.5C16.4367 0.5 19.1817 1.74562 21.2137 3.98119C23.247 6.21836 24.3965 9.26199 24.3965 12.4445V23.3333V23.8333H24.8965C25.1227 23.8333 25.3504 23.9317 25.5263 24.1253C25.7036 24.3204 25.8104 24.5944 25.8104 24.8889C25.8104 25.1835 25.7036 25.4575 25.5263 25.6525C25.3504 25.8461 25.1227 25.9445 24.8965 25.9445H16.4134H15.9134V26.4445C15.9134 27.1516 15.6577 27.8212 15.2152 28.308C14.7741 28.7933 14.1868 29.0556 13.5857 29.0556C12.9846 29.0556 12.3972 28.7933 11.9562 28.308C11.5137 27.8212 11.258 27.1516 11.258 26.4445ZM22.0688 23.8333H22.5688V23.3333V12.4445C22.5688 9.85108 21.6329 7.35545 19.9542 5.50849C18.274 3.65993 15.9844 2.61111 13.5857 2.61111C11.187 2.61111 8.89737 3.65993 7.21721 5.50849C5.53849 7.35545 4.60256 9.85108 4.60256 12.4445V23.3333V23.8333H5.10256H22.0688Z" fill="#4F4F4F" stroke="black"/>
</svg>
