<svg width="81" height="80" viewBox="0 0 81 80" fill="none" xmlns="http://www.w3.org/2000/svg">
<path opacity="0.3" d="M80.5 40C80.5 62.0914 62.5914 80 40.5 80C18.4086 80 0.5 62.0914 0.5 40C0.5 17.9086 18.4086 0 40.5 0C62.5914 0 80.5 17.9086 80.5 40ZM11.4071 40C11.4071 56.0675 24.4325 69.0929 40.5 69.0929C56.5675 69.0929 69.5929 56.0675 69.5929 40C69.5929 23.9325 56.5675 10.9071 40.5 10.9071C24.4325 10.9071 11.4071 23.9325 11.4071 40Z" fill="#EEDFE2"/>
<circle cx="40.5" cy="40" r="29" fill="#EEDFE2"/>
<path d="M40.9273 38.1456V38.6456L41.4273 38.6456C42.0911 38.6457 42.7385 38.8514 43.2805 39.2346C43.8224 39.6178 44.2323 40.1596 44.4536 40.7854C44.4722 40.8382 44.4803 40.8942 44.4773 40.9502C44.4743 41.0062 44.4603 41.0611 44.4361 41.1117C44.4119 41.1624 44.378 41.2077 44.3362 41.2452C44.2945 41.2828 44.2458 41.3117 44.1929 41.3304C44.1399 41.3491 44.0839 41.3571 44.0278 41.3542C43.9718 41.3512 43.9169 41.3372 43.8663 41.313C43.764 41.2641 43.6854 41.1766 43.6476 41.0697L43.6475 41.0695C43.4851 40.6104 43.1844 40.213 42.7868 39.9319C42.3891 39.6509 41.9141 39.5 41.4272 39.5002L40.9273 39.5003V40.0002V43.7092V44.2092H41.4273C42.2784 44.2092 43.0947 44.5473 43.6965 45.1491C44.2983 45.7509 44.6364 46.5672 44.6364 47.4183C44.6364 48.2694 44.2983 49.0856 43.6965 49.6874C43.0947 50.2892 42.2784 50.6273 41.4273 50.6273H40.9273V51.1273V51.5546H40.0728V51.1273V50.6273L39.5728 50.6273C38.9091 50.6273 38.2617 50.4215 37.7197 50.0383C37.1777 49.6551 36.7679 49.1134 36.5466 48.4876L36.5468 48.4875L36.5417 48.4744C36.5212 48.4211 36.5115 48.3642 36.5133 48.3071C36.5151 48.25 36.5284 48.1939 36.5523 48.142C36.5762 48.0901 36.6102 48.0435 36.6525 48.005C36.6947 47.9665 36.7442 47.9369 36.798 47.9179C36.8519 47.8988 36.909 47.8908 36.9661 47.8942C37.0231 47.8977 37.0788 47.9125 37.13 47.9379C37.1812 47.9632 37.2268 47.9986 37.2641 48.0419C37.3014 48.0852 37.3296 48.1355 37.3471 48.1899L37.3494 48.1969L37.3518 48.2039C37.6763 49.1186 38.5479 49.7728 39.5728 49.7728H40.0728V49.2728V45.5637V45.0637H39.5728C38.7217 45.0637 37.9055 44.7256 37.3037 44.1238C36.7019 43.522 36.3638 42.7058 36.3638 41.8547C36.3638 41.0036 36.7019 40.1874 37.3037 39.5856C37.9055 38.9837 38.7217 38.6456 39.5728 38.6456H40.0728V38.1456V37.7184H40.9273V38.1456ZM40.0728 40.0002V39.5002H39.5728C38.9484 39.5002 38.3495 39.7482 37.9079 40.1898C37.4664 40.6314 37.2183 41.2302 37.2183 41.8547C37.2183 42.4792 37.4664 43.078 37.9079 43.5196C38.3495 43.9612 38.9484 44.2092 39.5728 44.2092H40.0728V43.7092V40.0002ZM40.9273 49.2728V49.7728H41.4273C42.0518 49.7728 42.6507 49.5247 43.0922 49.0832C43.5338 48.6416 43.7819 48.0427 43.7819 47.4183C43.7819 46.7938 43.5338 46.1949 43.0922 45.7534C42.6507 45.3118 42.0518 45.0637 41.4273 45.0637H40.9273V45.5637V49.2728Z" fill="#FAFAFA" stroke="#ED1270"/>
<path d="M33.3061 32.6882L33.3305 32.6625L33.4475 32.8348L33.4671 32.8418L33.3417 33.1662L33.0828 32.926C33.157 32.846 33.2315 32.7667 33.3061 32.6882ZM46.8567 31.8558C46.7965 31.8781 46.7361 31.8999 46.6756 31.9215L46.5571 31.588L46.8497 31.7882L46.8254 31.8238L46.8567 31.8558ZM46.6871 25.7993C47.1017 25.9292 47.4992 26.0665 47.8772 26.2077C47.4746 26.2543 47.0646 26.3091 46.649 26.3716L46.6871 25.7993ZM31.2917 26.9953C31.5554 26.8697 31.8378 26.7421 32.1372 26.615L32.2754 26.9406L32.1699 27.295L31.1958 27.0421L31.2917 26.9953Z" fill="#FAFAFA" stroke="#00FFFF" stroke-width="3"/>
</svg>
