<svg width="32" height="31" viewBox="0 0 32 31" fill="none" xmlns="http://www.w3.org/2000/svg">
<path d="M15.5412 10.5416C14.5806 10.5416 13.6416 10.8227 12.843 11.3492C12.0443 11.8757 11.4218 12.624 11.0543 13.4996C10.6867 14.3752 10.5905 15.3386 10.7779 16.2681C10.9653 17.1976 11.4278 18.0514 12.107 18.7215C12.7862 19.3916 13.6516 19.848 14.5937 20.0329C15.5358 20.2178 16.5123 20.1229 17.3997 19.7602C18.2871 19.3975 19.0456 18.7834 19.5793 17.9954C20.1129 17.2074 20.3977 16.281 20.3977 15.3333C20.3962 14.0629 19.8841 12.845 18.9736 11.9467C18.0631 11.0484 16.8287 10.5431 15.5412 10.5416ZM15.5412 18.2083C14.9648 18.2083 14.4014 18.0397 13.9222 17.7238C13.4431 17.4078 13.0696 16.9588 12.849 16.4335C12.6285 15.9082 12.5708 15.3301 12.6832 14.7724C12.7956 14.2147 13.0732 13.7024 13.4807 13.3004C13.8882 12.8983 14.4074 12.6245 14.9727 12.5135C15.5379 12.4026 16.1238 12.4595 16.6563 12.6771C17.1887 12.8947 17.6438 13.2632 17.964 13.736C18.2842 14.2088 18.4551 14.7647 18.4551 15.3333C18.4543 16.0955 18.147 16.8263 17.6007 17.3653C17.0544 17.9043 16.3137 18.2074 15.5412 18.2083Z" fill="white"/>
<path d="M6.09356 9.37506C5.61595 9.19801 5.08726 9.21123 4.61933 9.41189C4.15141 9.61256 3.78095 9.98495 3.58633 10.4503C3.39171 10.9156 3.38819 11.4374 3.57651 11.9052C3.76484 12.3731 4.13023 12.7503 4.5954 12.9571C5.06863 13.1546 5.4724 13.4853 5.75627 13.9078C6.04014 14.3304 6.19153 14.8261 6.19153 15.3331C6.19153 15.84 6.04014 16.3357 5.75627 16.7583C5.4724 17.1809 5.06863 17.5115 4.5954 17.709C4.13012 17.9158 3.76464 18.2931 3.57629 18.761C3.38794 19.229 3.3915 19.7509 3.58623 20.2163C3.78095 20.6817 4.15156 21.0541 4.61963 21.2547C5.08769 21.4553 5.6165 21.4683 6.09415 21.2911C6.57079 21.0995 7.09411 21.0511 7.59856 21.1517C8.10301 21.2523 8.56615 21.4975 8.92998 21.8566C9.2938 22.2158 9.54213 22.6728 9.64385 23.1706C9.74557 23.6683 9.69617 24.1846 9.50182 24.6548C9.31657 25.1273 9.32807 25.6529 9.53381 26.1171C9.73956 26.5812 10.1229 26.9464 10.6003 27.133C10.8394 27.2306 11.0956 27.2808 11.3543 27.2808C11.7323 27.2835 12.1027 27.1759 12.419 26.9717C12.7353 26.7675 12.9835 26.4757 13.1324 26.1329C13.3326 25.666 13.6677 25.2677 14.096 24.9876C14.5243 24.7075 15.0267 24.5582 15.5406 24.5582C16.0544 24.5582 16.5568 24.7075 16.9851 24.9876C17.4134 25.2677 17.7485 25.666 17.9487 26.1329C18.1583 26.592 18.5407 26.9526 19.015 27.1384C19.4893 27.3243 20.0182 27.3208 20.4899 27.1286C20.9616 26.9365 21.3391 26.5709 21.5424 26.1091C21.7457 25.6472 21.7589 25.1255 21.5793 24.6542C21.3852 24.184 21.336 23.6676 21.438 23.1699C21.54 22.6722 21.7885 22.2153 22.1525 21.8563C22.5165 21.4974 22.9798 21.2524 23.4843 21.152C23.9888 21.0516 24.5121 21.1004 24.9886 21.2921C25.4645 21.4744 25.994 21.4646 26.4627 21.2649C26.9313 21.0652 27.3015 20.6915 27.4932 20.2247L26.6026 19.8429L25.7187 19.5163C24.8885 19.1817 23.9766 19.0967 23.0976 19.2721C22.2186 19.4474 21.4118 19.8752 20.7786 20.5018C20.1459 21.1311 19.7112 21.9275 19.5269 22.795C19.3426 23.6626 19.4166 24.5642 19.7399 25.3912C19.3934 24.575 18.8098 23.8783 18.0626 23.3889C17.3154 22.8995 16.4381 22.6393 15.5412 22.6411C14.6424 22.6438 13.7636 22.9035 13.0113 23.3888C12.2589 23.874 11.6652 24.564 11.3021 25.3752C11.641 24.5561 11.727 23.6564 11.5493 22.7893C11.3716 21.9221 10.9381 21.1261 10.3033 20.5012C9.66539 19.877 8.85818 19.4482 7.9789 19.2664C7.09963 19.0845 6.18581 19.1575 5.34759 19.4764C6.17481 19.1344 6.8809 18.5585 7.37685 17.8212C7.87279 17.0839 8.13639 16.2182 8.1344 15.3333C8.13162 14.4465 7.86839 13.5795 7.37657 12.8372C6.88475 12.0949 6.18543 11.5092 5.36323 11.1508C6.19339 11.4854 7.10529 11.5704 7.98427 11.3951C8.86324 11.2197 9.67005 10.7919 10.3033 10.1654C10.936 9.53611 11.3707 8.73968 11.555 7.87214C11.7393 7.0046 11.6653 6.10298 11.342 5.27598C11.6886 6.09214 12.2723 6.78879 13.0196 7.2781C13.7669 7.76742 14.6443 8.02749 15.5412 8.02553C16.44 8.02278 17.3188 7.76307 18.0711 7.27783C18.8235 6.79259 19.4171 6.10262 19.7803 5.29141C19.4414 6.11051 19.3554 7.01016 19.5331 7.87734C19.7108 8.74452 20.1443 9.54055 20.7791 10.1654C21.4171 10.7893 22.2243 11.218 23.1036 11.3998C23.9828 11.5817 24.8965 11.5089 25.7348 11.1902C24.9115 11.5315 24.2083 12.1042 23.7128 12.8371C23.2172 13.5699 22.9512 14.4305 22.948 15.3115C22.9448 16.1925 23.2044 17.0549 23.6946 17.7913C24.1848 18.5277 24.8838 19.1054 25.7045 19.4525C25.7071 19.4604 25.7071 19.4689 25.7045 19.4768L26.6023 19.8424L27.4948 20.2199L27.5 20.2078C27.6983 19.7437 27.7032 19.2212 27.5135 18.7536C27.3239 18.286 26.955 17.911 26.487 17.71C26.0137 17.5125 25.61 17.1818 25.3261 16.7592C25.0422 16.3367 24.8908 15.841 24.8908 15.334C24.8908 14.8271 25.0422 14.3314 25.3261 13.9088C25.61 13.4862 26.0137 13.1556 26.487 12.9581C26.9522 12.7513 27.3177 12.374 27.5061 11.906C27.6944 11.4381 27.6909 10.9162 27.4961 10.4508C27.3014 9.9854 26.9308 9.61301 26.4627 9.41241C25.9947 9.21182 25.4659 9.19877 24.9882 9.37602C24.5116 9.56753 23.9883 9.61603 23.4838 9.51543C22.9794 9.41482 22.5162 9.16959 22.1524 8.81046C21.7886 8.45132 21.5402 7.99425 21.4385 7.4965C21.3368 6.99874 21.3862 6.48244 21.5805 6.01227C21.7601 5.54102 21.7468 5.01933 21.5435 4.55758C21.3402 4.09583 20.9627 3.73023 20.4911 3.53816C20.0194 3.34608 19.4905 3.34259 19.0162 3.52842C18.542 3.71424 18.1596 4.07482 17.9501 4.53384C17.7499 5.00075 17.4147 5.39912 16.9865 5.67919C16.5582 5.95927 16.0557 6.10864 15.5419 6.10864C15.0281 6.10864 14.5257 5.95927 14.0974 5.67919C13.6691 5.39912 13.3339 5.00075 13.1338 4.53384C12.9242 4.07478 12.5418 3.71418 12.0675 3.52835C11.5932 3.34252 11.0642 3.34604 10.5925 3.53816C10.1208 3.73028 9.74339 4.09593 9.54007 4.55774C9.33676 5.01955 9.32353 5.54129 9.50318 6.01255C9.6973 6.48282 9.74645 6.99915 9.64448 7.49685C9.54252 7.99456 9.29396 8.45151 8.92996 8.81047C8.56596 9.16943 8.1027 9.41444 7.5982 9.5148C7.0937 9.61517 6.5704 9.56642 6.09386 9.37467L6.09356 9.37506Z" fill="white"/>
</svg>
