<svg width="35" height="38" viewBox="0 0 35 38" fill="none" xmlns="http://www.w3.org/2000/svg">
<path d="M17.3819 18.9998C18.1628 18.9998 18.7958 18.3033 18.7958 17.4442C18.7958 16.5851 18.1628 15.8887 17.3819 15.8887C16.6011 15.8887 15.9681 16.5851 15.9681 17.4442C15.9681 18.3033 16.6011 18.9998 17.3819 18.9998Z" fill="#4F4F4F"/>
<path d="M11.7264 18.9998C12.5073 18.9998 13.1403 18.3033 13.1403 17.4442C13.1403 16.5851 12.5073 15.8887 11.7264 15.8887C10.9456 15.8887 10.3126 16.5851 10.3126 17.4442C10.3126 18.3033 10.9456 18.9998 11.7264 18.9998Z" fill="#4F4F4F"/>
<path d="M23.0373 18.9998C23.8182 18.9998 24.4512 18.3033 24.4512 17.4442C24.4512 16.5851 23.8182 15.8887 23.0373 15.8887C22.2564 15.8887 21.6234 16.5851 21.6234 17.4442C21.6234 18.3033 22.2564 18.9998 23.0373 18.9998Z" fill="#4F4F4F"/>
<path d="M5.66362 34.0556L5.65959 34.0556C5.41231 34.0562 5.16602 34.0032 4.93439 33.8981L4.72778 34.3532L4.93295 33.8974C4.58818 33.7422 4.28563 33.473 4.07042 33.1167C3.855 32.7601 3.73944 32.336 3.74316 31.8998H3.74318V31.8956V12.7778C3.74318 10.833 4.4458 8.97635 5.68372 7.61436C6.9202 6.25396 8.58642 5.5 10.3125 5.5H24.451C26.177 5.5 27.8433 6.25396 29.0797 7.61436C30.3177 8.97635 31.0203 10.833 31.0203 12.7778V22.1111C31.0203 24.0559 30.3177 25.9126 29.0797 27.2745C27.8433 28.6349 26.177 29.3889 24.451 29.3889H10.8921H10.6709L10.5221 29.5526L6.98749 33.4415L6.98748 33.4415L6.98444 33.4449C6.80748 33.6432 6.59887 33.7975 6.37243 33.9013C6.14618 34.005 5.90532 34.0569 5.66362 34.0556ZM10.3093 27.2778H10.3125H24.451C25.7248 27.2778 26.9355 26.7206 27.8202 25.7473C28.7035 24.7755 29.1926 23.4668 29.1926 22.1111V12.7778C29.1926 11.4221 28.7035 10.1134 27.8202 9.14165C26.9355 8.16826 25.7248 7.61111 24.451 7.61111H10.3125C9.03866 7.61111 7.82793 8.16826 6.94321 9.14165C6.05994 10.1134 5.57089 11.4221 5.57089 12.7778V30.8067V32.1044L6.44162 31.1422L9.67725 27.5667C9.67756 27.5664 9.67787 27.566 9.67818 27.5657C9.76579 27.4703 9.86698 27.3977 9.97462 27.3493C10.0825 27.3009 10.196 27.2771 10.3093 27.2778Z" fill="#4F4F4F" stroke="black"/>
</svg>
