<svg width="31" height="30" viewBox="0 0 31 30" fill="none" xmlns="http://www.w3.org/2000/svg">
<path d="M26.7111 24.3764C28.8392 21.7135 30.0027 18.4085 30.0119 14.9999C29.9754 11.0445 28.3925 7.25987 25.6018 4.45703C22.8107 1.65381 19.0333 0.0538861 15.0786 0C12.0198 0.00324217 9.03396 0.932983 6.51433 2.66685C3.99439 4.4004 2.05884 6.857 0.962471 9.71226C-0.184779 12.7589 -0.309981 16.0958 0.606083 19.2196C1.52215 22.3436 3.42955 25.0847 6.04021 27.0292C8.65094 28.9741 11.8235 30.0165 15.0789 29.9998C17.3138 29.9846 19.5172 29.4721 21.5293 28.4994C23.5414 27.5268 25.3116 26.1182 26.7118 24.3761L26.7111 24.3764ZM15.0081 27.413C11.6958 27.3788 8.53155 26.0356 6.20628 23.6763C3.88088 21.3172 2.58378 18.1337 2.5977 14.8208C2.67676 11.5589 4.02479 8.45641 6.35536 6.17289C8.686 3.88937 11.8155 2.60473 15.078 2.59202V8.43643C17.4007 8.46885 19.5335 9.72682 20.6855 11.744C21.8377 13.7611 21.8377 16.2371 20.6855 18.2544C19.5335 20.2715 17.4007 21.5295 15.078 21.5619V27.4076L15.0081 27.413Z" fill="black"/>
<path d="M8.43823 14.9999C8.4537 16.7492 9.16071 18.4212 10.4048 19.651C11.6487 20.8805 13.329 21.5681 15.0782 21.5634V8.43661C13.329 8.43187 11.6487 9.11944 10.4048 10.349C9.16078 11.5788 8.45368 13.2507 8.43823 15V14.9999Z" fill="black"/>
</svg>
