<svg width="26" height="26" viewBox="0 0 26 26" fill="none" xmlns="http://www.w3.org/2000/svg">
<path d="M21.1666 0.166626H4.83329C3.59562 0.166626 2.40863 0.658291 1.53346 1.53346C0.658291 2.40863 0.166626 3.59562 0.166626 4.83329V13C0.166626 13.3094 0.289542 13.6061 0.508335 13.8249C0.727127 14.0437 1.02387 14.1666 1.33329 14.1666H7.16663V24.6666C7.16608 24.8898 7.22953 25.1084 7.34946 25.2966C7.4694 25.4847 7.64078 25.6346 7.84329 25.7283C8.04628 25.8217 8.27183 25.8549 8.49313 25.8239C8.71443 25.7929 8.92216 25.6989 9.09163 25.5533L12.4166 22.7066L15.7416 25.5533C15.953 25.734 16.2219 25.8334 16.5 25.8334C16.778 25.8334 17.047 25.734 17.2583 25.5533L20.5833 22.7066L23.9083 25.5533C24.1196 25.734 24.3886 25.8333 24.6666 25.8333C24.8354 25.8321 25.0022 25.7964 25.1566 25.7283C25.3591 25.6346 25.5305 25.4847 25.6505 25.2966C25.7704 25.1084 25.8338 24.8898 25.8333 24.6666V4.83329C25.8333 3.59562 25.3416 2.40863 24.4665 1.53346C23.5913 0.658291 22.4043 0.166626 21.1666 0.166626ZM2.49996 11.8333V4.83329C2.49996 4.21445 2.74579 3.62096 3.18338 3.18338C3.62096 2.74579 4.21446 2.49996 4.83329 2.49996C5.45213 2.49996 6.04562 2.74579 6.48321 3.18338C6.92079 3.62096 7.16663 4.21445 7.16663 4.83329V11.8333H2.49996ZM23.5 22.135L21.3416 20.28C21.1303 20.0992 20.8614 19.9999 20.5833 19.9999C20.3052 19.9999 20.0363 20.0992 19.825 20.28L16.5 23.1266L13.175 20.28C12.9636 20.0992 12.6947 19.9999 12.4166 19.9999C12.1385 19.9999 11.8696 20.0992 11.6583 20.28L9.49996 22.135V4.83329C9.49851 4.01369 9.28122 3.20892 8.86996 2.49996H21.1666C21.7855 2.49996 22.379 2.74579 22.8165 3.18338C23.2541 3.62096 23.5 4.21445 23.5 4.83329V22.135ZM21.1666 5.99996C21.1666 6.30938 21.0437 6.60612 20.8249 6.82492C20.6061 7.04371 20.3094 7.16663 20 7.16663H13C12.6905 7.16663 12.3938 7.04371 12.175 6.82492C11.9562 6.60612 11.8333 6.30938 11.8333 5.99996C11.8333 5.69054 11.9562 5.39379 12.175 5.175C12.3938 4.95621 12.6905 4.83329 13 4.83329H20C20.3094 4.83329 20.6061 4.95621 20.8249 5.175C21.0437 5.39379 21.1666 5.69054 21.1666 5.99996ZM21.1666 10.6666C21.1666 10.976 21.0437 11.2728 20.8249 11.4916C20.6061 11.7104 20.3094 11.8333 20 11.8333H13C12.6905 11.8333 12.3938 11.7104 12.175 11.4916C11.9562 11.2728 11.8333 10.976 11.8333 10.6666C11.8333 10.3572 11.9562 10.0605 12.175 9.84167C12.3938 9.62288 12.6905 9.49996 13 9.49996H20C20.3094 9.49996 20.6061 9.62288 20.8249 9.84167C21.0437 10.0605 21.1666 10.3572 21.1666 10.6666ZM21.1666 15.3333C21.1666 15.6427 21.0437 15.9395 20.8249 16.1582C20.6061 16.377 20.3094 16.5 20 16.5H13C12.6905 16.5 12.3938 16.377 12.175 16.1582C11.9562 15.9395 11.8333 15.6427 11.8333 15.3333C11.8333 15.0239 11.9562 14.7271 12.175 14.5083C12.3938 14.2895 12.6905 14.1666 13 14.1666H20C20.3094 14.1666 20.6061 14.2895 20.8249 14.5083C21.0437 14.7271 21.1666 15.0239 21.1666 15.3333Z" fill="#ED0A8A"/>
</svg>
